<svg width="134" height="27" viewBox="0 0 134 27" fill="none" xmlns="http://www.w3.org/2000/svg">
<path d="M125.017 10.8601C125.249 10.6916 125.532 10.6104 125.817 10.6309H131V7.84641C130.544 7.80745 130.029 7.77078 129.456 7.73182C128.884 7.69286 128.225 7.66078 127.475 7.62869C126.725 7.59661 125.843 7.58057 124.826 7.58057C124.427 7.58371 124.03 7.63762 123.645 7.74099C123.248 7.84494 122.875 8.02638 122.548 8.27497C122.202 8.55033 121.927 8.90573 121.748 9.31084C121.522 9.83142 121.415 10.3958 121.433 10.9632V18.5489C121.403 19.1649 121.534 19.7781 121.814 20.3273C122.037 20.7323 122.367 21.0676 122.767 21.2967C123.137 21.5038 123.541 21.6435 123.959 21.7092C124.315 21.7685 124.675 21.8007 125.035 21.8055L127.046 21.7573C127.751 21.739 128.446 21.7023 129.133 21.6519C129.819 21.6015 130.441 21.5442 131 21.4823V18.7299H125.722C125.55 18.7312 125.381 18.6919 125.227 18.6154C125.073 18.5387 124.946 18.4163 124.864 18.2647C124.765 18.0604 124.719 17.8341 124.73 17.607V16.1242L130.067 15.9546V13.3604L124.73 13.1701V11.6118C124.718 11.4727 124.737 11.3328 124.787 11.2025C124.837 11.0722 124.916 10.9551 125.017 10.8601Z" fill="#18181B"/>
<path d="M118.197 13.6997C117.526 13.3553 116.778 13.1896 116.024 13.2184H114.711C114.331 13.2474 113.951 13.1482 113.633 12.9365C113.51 12.8262 113.414 12.6886 113.353 12.5347C113.292 12.3808 113.268 12.2147 113.282 12.0496V11.7861C113.26 11.497 113.348 11.2104 113.528 10.984C113.719 10.787 113.966 10.6548 114.235 10.6058C114.579 10.533 114.93 10.4984 115.281 10.5027C115.879 10.5027 116.54 10.5218 117.265 10.56C117.988 10.5967 118.633 10.6356 119.228 10.6723V8.10781C118.872 8.01843 118.457 7.93593 117.988 7.8603C117.518 7.78467 117.023 7.7205 116.501 7.66321C115.963 7.60538 115.423 7.57707 114.882 7.57841C113.362 7.57841 112.193 7.90843 111.376 8.56845C110.558 9.22848 110.151 10.2475 110.156 11.6257V12.2857C110.156 13.7432 110.524 14.7806 111.262 15.3979C111.999 16.0151 113.079 16.3207 114.501 16.3146H115.607C115.912 16.3021 116.212 16.3942 116.458 16.5758C116.57 16.6696 116.658 16.7886 116.716 16.9231C116.774 17.0577 116.8 17.2041 116.791 17.3504V17.708C116.798 17.8367 116.78 17.9655 116.737 18.0871C116.694 18.2086 116.628 18.3205 116.542 18.4161C116.344 18.6029 116.096 18.7271 115.828 18.7736C115.453 18.8506 115.071 18.8859 114.688 18.879C114.232 18.879 113.747 18.8722 113.231 18.8584C112.716 18.847 112.212 18.8286 111.715 18.8034C111.218 18.7782 110.769 18.7461 110.363 18.7095V21.2923C110.669 21.3679 111.002 21.4389 111.364 21.5008C111.727 21.5627 112.101 21.6177 112.488 21.6612C112.876 21.7048 113.27 21.7392 113.669 21.7644C114.068 21.7896 114.467 21.8033 114.862 21.8033C115.764 21.8185 116.665 21.7106 117.538 21.4825C118.25 21.2982 118.872 20.8631 119.292 20.2564C119.704 19.6453 119.91 18.7645 119.912 17.614V16.9265C119.922 16.2686 119.775 15.6178 119.483 15.0289C119.198 14.4657 118.749 14.0024 118.197 13.6997Z" fill="#18181B"/>
<path d="M108.635 7.58252H105.338V21.796H108.635V7.58252Z" fill="#18181B"/>
<path d="M99.996 9.40032L98.3886 16.8691L96.0447 7.57838H93.0806L90.7162 16.8691L89.0974 9.39116C88.9881 8.87693 88.7061 8.41614 88.2989 8.08608C87.8916 7.75601 87.3838 7.57676 86.8607 7.57838H85.2943L88.6118 21.7872H91.9269L94.5695 12.4827L97.1801 21.7918H100.495L103.813 7.58296H102.255C101.729 7.58014 101.217 7.75905 100.806 8.08982C100.395 8.42059 100.109 8.88319 99.996 9.40032Z" fill="#18181B"/>
<path d="M83.7755 7.57837H80.479V21.7918H83.7755V7.57837Z" fill="#18181B"/>
<path d="M77.2414 13.6879C76.5697 13.344 75.8218 13.1784 75.0685 13.2067H73.7529C73.373 13.2358 72.9942 13.1366 72.6768 12.9248C72.5533 12.8148 72.457 12.6773 72.3956 12.5234C72.3343 12.3694 72.3095 12.2031 72.3234 12.0379V11.7743C72.3022 11.485 72.391 11.1983 72.5719 10.9722C72.7626 10.7765 73.0086 10.6445 73.2764 10.5941C73.6212 10.5213 73.9729 10.4867 74.3252 10.4909C74.9226 10.4909 75.5815 10.5093 76.3066 10.5482C77.0316 10.5872 77.6746 10.6239 78.2697 10.6605V8.10063C77.914 8.01355 77.5013 7.93181 77.0316 7.85541C76.5619 7.77902 76.0664 7.71333 75.545 7.65832C75.0066 7.60055 74.4654 7.57224 73.9239 7.57353C72.4039 7.57353 71.235 7.90354 70.4172 8.56356C69.5995 9.22359 69.1929 10.2388 69.1974 11.6093V12.2693C69.1974 13.7269 69.566 14.7643 70.3032 15.3815C71.0405 15.9988 72.1204 16.3043 73.5432 16.2982H74.649C74.9533 16.2869 75.2523 16.3798 75.4972 16.5618C75.6093 16.6555 75.6979 16.7745 75.7557 16.9091C75.8136 17.0437 75.839 17.1901 75.8301 17.3364V17.6939C75.8378 17.8226 75.8198 17.9516 75.7771 18.0733C75.7345 18.1949 75.6679 18.3067 75.5815 18.4021C75.3835 18.5888 75.1354 18.7131 74.8679 18.7596C74.4926 18.8347 74.1104 18.8692 73.7279 18.8627C73.2718 18.8627 72.7839 18.8627 72.2686 18.8444C71.7533 18.826 71.2495 18.8146 70.7547 18.7894C70.2599 18.7642 69.8062 18.7321 69.4003 18.6931V21.2782C69.7059 21.3538 70.0388 21.4226 70.4013 21.4845C70.7638 21.5463 71.1377 21.6013 71.5253 21.6449C71.9129 21.6884 72.3074 21.7251 72.7064 21.7503C73.1054 21.7755 73.5044 21.787 73.8989 21.787C74.8014 21.8023 75.7019 21.6944 76.5756 21.4661C77.2884 21.2841 77.9113 20.8485 78.329 20.24C78.7409 19.6381 78.9476 18.758 78.9491 17.5999V16.9124C78.9592 16.2553 78.8122 15.6053 78.5205 15.0171C78.2362 14.4553 77.7906 13.9922 77.2414 13.6879Z" fill="#18181B"/>
<path d="M67.6806 7.57837H64.3842V21.7918H67.6806V7.57837Z" fill="#18181B"/>
<path d="M58.8756 9.62023L56.4747 18.2097L54.0715 9.61564C53.9071 9.02992 53.5569 8.51417 53.0742 8.14684C52.5914 7.7795 52.0025 7.58067 51.397 7.58057H50.0906L54.3976 21.7894H58.513L62.82 7.58057H61.5569C60.95 7.58096 60.3598 7.78034 59.8759 8.14845C59.392 8.51655 59.0408 9.03329 58.8756 9.62023Z" fill="#18181B"/>
<path d="M28.5669 24.23L31.873 11.442L34.7732 23.2445L38.1157 22.7129L40.9612 6.84476L39.657 6.56975C38.7017 6.37037 37.8444 7.08311 37.6301 8.29774L36.0614 17.1668L33.583 5.28866L30.0444 4.54614L26.8523 17.38L24.4743 6.12515C24.1209 4.45676 22.6297 2.99233 20.8103 2.60961L17.9602 2L23.7105 25L28.5669 24.23Z" fill="#FF9F1C"/>
<path d="M12.2237 25L17.9603 2L15.8261 2.61419C13.8767 3.18025 12.3308 4.79365 11.9318 6.59725L9.12739 19.2386L5.96498 7.97918C5.5751 6.60413 4.42824 5.9166 3.2107 6.26953L2 6.61788L6.61023 24.1108L12.2237 25Z" fill="#FF9F1C"/>
</svg>
